<svg width="63" height="64" viewBox="0 0 63 64" fill="none" xmlns="http://www.w3.org/2000/svg">
<g clip-path="url(#clip0)">
<path d="M31.5 64C48.897 64 63 49.6731 63 32C63 14.3269 48.897 0 31.5 0C14.103 0 0 14.3269 0 32C0 49.6731 14.103 64 31.5 64Z" fill="url(#paint0_linear)"/>
<path d="M31.4999 59.5862C46.4973 59.5862 58.6551 47.2355 58.6551 32C58.6551 16.7646 46.4973 4.41382 31.4999 4.41382C16.5025 4.41382 4.34473 16.7646 4.34473 32C4.34473 47.2355 16.5025 59.5862 31.4999 59.5862Z" fill="url(#paint1_linear)"/>
<g opacity="0.2">
<path opacity="0.2" d="M31.4999 59.5862C46.4973 59.5862 58.6551 47.2355 58.6551 32C58.6551 16.7646 46.4973 4.41382 31.4999 4.41382C16.5025 4.41382 4.34473 16.7646 4.34473 32C4.34473 47.2355 16.5025 59.5862 31.4999 59.5862Z" fill="black"/>
</g>
<path d="M31.5 57.931C45.5975 57.931 57.0258 46.3213 57.0258 32C57.0258 17.6787 45.5975 6.06897 31.5 6.06897C17.4024 6.06897 5.97412 17.6787 5.97412 32C5.97412 46.3213 17.4024 57.931 31.5 57.931Z" fill="url(#paint2_linear)"/>
<g opacity="0.33">
<path opacity="0.33" d="M31.5001 64C31.0851 64 30.6658 64 30.2509 63.9758L30.4204 59.562C31.1872 59.5929 31.9671 59.5907 32.7253 59.562L32.9186 63.9758C32.4494 64 31.9736 64 31.5001 64ZM28.9214 63.8941L28.3892 63.8456L28.8128 59.4538C28.9648 59.4671 29.1169 59.4825 29.2712 59.4935L28.9214 63.8941ZM15.7653 59.7275C11.895 57.4605 8.54341 54.3834 5.93289 50.7003C3.32238 47.0173 1.51257 42.8124 0.623535 38.3647L4.88147 37.482C5.64908 41.3162 7.2103 44.9408 9.46161 48.1155C11.7129 51.2902 14.6029 53.9424 17.9398 55.8963L15.7653 59.7275ZM52.3552 55.9912L49.4789 52.6809C52.3625 50.0901 54.6717 46.9068 56.2536 43.3417C57.8355 39.7765 58.6541 35.9107 58.6552 32V31.9338H63.0001V32C62.9996 36.5368 62.0504 41.0216 60.2153 45.1576C58.3802 49.2936 55.701 52.9863 52.3552 55.9912ZM56.2438 20.5992C56.1808 20.458 56.1157 20.3167 56.0505 20.1755L59.9608 18.282C60.0369 18.4453 60.1107 18.6086 60.1781 18.7741L56.2438 20.5992ZM7.38626 19.3126L3.52371 17.28C3.93212 16.4789 4.37964 15.6889 4.85323 14.9275L8.52678 17.2845C8.11836 17.9421 7.73167 18.624 7.38626 19.3126ZM55.527 19.1338C55.1707 18.4475 54.7796 17.7678 54.3669 17.1145L58.0231 14.7311C58.5032 15.488 58.955 16.2759 59.3699 17.0726L55.527 19.1338ZM9.16329 16.309L5.59185 13.7954C5.69178 13.6453 5.79605 13.4974 5.90033 13.354L9.42833 15.9272C9.34143 16.053 9.25019 16.181 9.16329 16.309ZM17.8899 8.12363L15.7175 4.3057C19.5845 2.03632 23.8813 0.625715 28.3244 0.166941C32.7674 -0.291833 37.2557 0.211651 41.4932 1.64418L40.1158 5.83728C36.4627 4.59998 32.5927 4.16399 28.7614 4.55811C24.9301 4.95222 21.2247 6.16748 17.8899 8.12363Z" fill="white"/>
</g>
<path d="M49.7484 29.0737L37.6915 16.8254C37.1432 16.2713 36.4012 15.9602 35.6277 15.9602C34.8543 15.9602 34.1123 16.2713 33.5639 16.8254L26.8946 23.6006L20.221 16.8254C19.8131 16.4061 19.2914 16.1197 18.7226 16.0029C18.1538 15.8861 17.5637 15.9441 17.0275 16.1696C16.4913 16.395 16.0334 16.7777 15.7122 17.2687C15.3911 17.7598 15.2212 18.3369 15.2244 18.9264V38.2742C16.0947 37.7051 17.108 37.4024 18.143 37.4024C19.1781 37.4024 20.1914 37.7051 21.0617 38.2742V26.0922L24.8113 29.9013C25.2893 30.3881 25.9189 30.6911 26.5924 30.7587C27.266 30.8264 27.9418 30.6543 28.5044 30.272C28.6751 30.1554 28.8337 30.0216 28.978 29.8726L35.6277 23.1283L43.5549 31.1813L34.0527 40.8276C33.7603 41.0979 33.5249 41.4256 33.3608 41.7909C33.1967 42.1563 33.1073 42.5517 33.098 42.9532C33.0887 43.3546 33.1596 43.7539 33.3066 44.1267C33.4535 44.4995 33.6734 44.8381 33.953 45.1221C34.2325 45.406 34.5658 45.6294 34.9328 45.7787C35.2998 45.928 35.6928 46.0001 36.088 45.9906C36.4832 45.9812 36.8724 45.8903 37.232 45.7236C37.5917 45.5569 37.9143 45.3178 38.1803 45.0207L49.7484 33.2668C50.2939 32.7098 50.6001 31.956 50.6001 31.1702C50.6001 30.3845 50.2939 29.6307 49.7484 29.0737Z" fill="url(#paint3_linear)"/>
<path d="M18.1527 39.9448C17.4294 39.9465 16.7324 40.2205 16.1963 40.7138C15.6603 41.2071 15.3232 41.8847 15.2503 42.6158C15.1773 43.3468 15.3737 44.0794 15.8014 44.6719C16.2292 45.2645 16.8579 45.6749 17.5661 45.824C17.6626 45.8467 17.7606 45.8615 17.8594 45.8681C17.9615 45.8681 18.0615 45.8836 18.1614 45.8836C18.2613 45.8836 18.3612 45.8836 18.4612 45.8681C18.5599 45.861 18.6579 45.8462 18.7545 45.824C19.464 45.6747 20.0937 45.263 20.5214 44.6688C20.9492 44.0746 21.1445 43.3403 21.0696 42.6081C20.9946 41.8759 20.6548 41.1981 20.1158 40.706C19.5769 40.214 18.8773 39.9427 18.1527 39.9448Z" fill="url(#paint4_linear)"/>
<g opacity="0.5">
<path opacity="0.5" d="M48.7686 29.1818L37.4155 17.6552C36.8992 17.1326 36.2001 16.8391 35.4712 16.8391C34.7424 16.8391 34.0432 17.1326 33.5269 17.6552L27.2486 24.0331L20.9617 17.6552C20.5765 17.2632 20.0853 16.9964 19.5506 16.8885C19.0158 16.7807 18.4615 16.8368 17.9582 17.0496C17.4549 17.2625 17.0252 17.6225 16.7237 18.084C16.4222 18.5455 16.2625 19.0876 16.2649 19.6414V37.8615C17.0848 37.3257 18.0392 37.0408 19.0141 37.0408C19.989 37.0408 20.9434 37.3257 21.7633 37.8615V26.3857L25.2935 29.9719C25.7441 30.4288 26.3365 30.7132 26.9701 30.7768C27.6037 30.8403 28.2394 30.6792 28.7693 30.3206C28.9259 30.2103 29.0715 30.0847 29.2038 29.9454L35.4582 23.594L42.9226 31.1769L33.9744 40.2516C33.7113 40.5097 33.5014 40.8184 33.357 41.1598C33.2126 41.5012 33.1367 41.8684 33.1336 42.2399C33.1305 42.6114 33.2004 42.9799 33.339 43.3237C33.4777 43.6675 33.6825 43.9798 33.9413 44.2423C34.2001 44.5048 34.5079 44.7123 34.8466 44.8526C35.1852 44.9929 35.548 45.0632 35.9138 45.0595C36.2795 45.0557 36.6408 44.978 36.9766 44.8307C37.3125 44.6835 37.616 44.4697 37.8696 44.202L48.7577 33.141C49.0147 32.882 49.2189 32.574 49.3586 32.2347C49.4983 31.8954 49.5707 31.5315 49.5717 31.1637C49.5727 30.7959 49.5023 30.4316 49.3645 30.0915C49.2267 29.7514 49.0242 29.4423 48.7686 29.1818Z" fill="#AE6A28"/>
<path opacity="0.5" d="M19.0154 39.4197C18.3354 39.4236 17.6808 39.6829 17.1777 40.1477C16.6746 40.6125 16.3585 41.2499 16.2903 41.9372C16.222 42.6246 16.4065 43.3133 16.8081 43.8707C17.2098 44.4282 17.8002 44.815 18.4658 44.9568C18.5571 44.9788 18.6502 44.9928 18.7438 44.9987C18.8373 44.9987 18.9307 45.012 19.0263 45.012C19.1218 45.012 19.2153 45.012 19.3087 44.9987C19.4016 44.9925 19.4939 44.9784 19.5846 44.9568C20.2514 44.8147 20.8427 44.4267 21.2443 43.8676C21.6459 43.3085 21.8293 42.618 21.7591 41.9296C21.6889 41.2411 21.37 40.6036 20.8641 40.14C20.3581 39.6765 19.7011 39.4198 19.0197 39.4197H19.0154Z" fill="#AE6A28"/>
</g>
</g>
<defs>
<linearGradient id="paint0_linear" x1="0" y1="32" x2="63" y2="32" gradientUnits="userSpaceOnUse">
<stop stop-color="#E7C51F"/>
<stop offset="0.33" stop-color="#ECB11F"/>
<stop offset="0.7" stop-color="#F0A21F"/>
<stop offset="1" stop-color="#F19D1F"/>
</linearGradient>
<linearGradient id="paint1_linear" x1="4.34473" y1="32" x2="58.6551" y2="32" gradientUnits="userSpaceOnUse">
<stop stop-color="#FEDF00"/>
<stop offset="0.37" stop-color="#FDC70C"/>
<stop offset="0.72" stop-color="#FCB813"/>
<stop offset="1" stop-color="#FCB316"/>
</linearGradient>
<linearGradient id="paint2_linear" x1="1665.15" y1="7779.67" x2="13662.3" y2="7779.67" gradientUnits="userSpaceOnUse">
<stop stop-color="#E7C51F"/>
<stop offset="0.33" stop-color="#ECB11F"/>
<stop offset="0.7" stop-color="#F0A21F"/>
<stop offset="1" stop-color="#F19D1F"/>
</linearGradient>
<linearGradient id="paint3_linear" x1="15.2353" y1="30.9187" x2="50.6022" y2="30.9187" gradientUnits="userSpaceOnUse">
<stop stop-color="#D3B42A"/>
<stop offset="0.18" stop-color="#D9AC28"/>
<stop offset="0.63" stop-color="#E59D24"/>
<stop offset="1" stop-color="#E99823"/>
</linearGradient>
<linearGradient id="paint4_linear" x1="454.74" y1="1224.49" x2="612.336" y2="1224.49" gradientUnits="userSpaceOnUse">
<stop stop-color="#D3B42A"/>
<stop offset="0.18" stop-color="#D9AC28"/>
<stop offset="0.63" stop-color="#E59D24"/>
<stop offset="1" stop-color="#E99823"/>
</linearGradient>
<clipPath id="clip0">
<rect width="63" height="64" fill="white"/>
</clipPath>
</defs>
</svg>
