<svg width="271" height="61" viewBox="0 0 271 61" fill="none" xmlns="http://www.w3.org/2000/svg">
<path d="M86.64 16.504V43H81.42V16.504H86.64ZM120.767 15.424V43H115.547V30.364L106.907 42.64H106.835L98.5186 31.156V43H93.4786V15.424H93.5146L106.943 34.468L120.695 15.424H120.767ZM127.615 16.504H135.535C138.919 16.504 141.703 17.164 143.887 18.484C146.071 19.78 147.655 21.472 148.639 23.56C149.647 25.624 150.151 27.844 150.151 30.22C150.151 32.764 149.551 35.008 148.351 36.952C147.151 38.896 145.531 40.396 143.491 41.452C141.475 42.484 139.255 43 136.831 43H127.615V16.504ZM135.931 37.96C138.643 37.96 140.791 37.264 142.375 35.872C143.959 34.48 144.751 32.476 144.751 29.86C144.751 27.748 144.307 26.068 143.419 24.82C142.555 23.572 141.535 22.708 140.359 22.228C139.207 21.748 138.115 21.508 137.083 21.508H132.835V37.96H135.931Z" fill="#F19D1F"/>
<path d="M175.261 40.804C174.589 41.356 173.521 41.908 172.057 42.46C170.593 43.012 168.997 43.288 167.269 43.288C164.509 43.288 162.109 42.688 160.069 41.488C158.029 40.288 156.469 38.68 155.389 36.664C154.309 34.624 153.769 32.392 153.769 29.968C153.769 27.304 154.309 24.928 155.389 22.84C156.469 20.752 157.981 19.132 159.925 17.98C161.869 16.804 164.113 16.216 166.657 16.216C168.265 16.216 169.753 16.432 171.121 16.864C172.489 17.296 173.689 17.836 174.721 18.484L172.669 23.416C170.773 21.976 168.829 21.256 166.837 21.256C165.493 21.256 164.233 21.628 163.057 22.372C161.881 23.116 160.945 24.136 160.249 25.432C159.553 26.704 159.205 28.12 159.205 29.68C159.205 31.384 159.529 32.884 160.177 34.18C160.825 35.452 161.749 36.448 162.949 37.168C164.149 37.888 165.553 38.248 167.161 38.248C168.457 38.248 169.621 38.044 170.653 37.636C171.685 37.204 172.501 36.7 173.101 36.124L175.261 40.804ZM178.87 29.788C178.87 27.388 179.47 25.144 180.67 23.056C181.894 20.968 183.538 19.312 185.602 18.088C187.69 16.84 189.946 16.216 192.37 16.216C194.794 16.216 197.038 16.84 199.102 18.088C201.19 19.312 202.846 20.968 204.07 23.056C205.318 25.144 205.942 27.388 205.942 29.788C205.942 32.236 205.318 34.492 204.07 36.556C202.846 38.62 201.19 40.264 199.102 41.488C197.038 42.688 194.794 43.288 192.37 43.288C189.922 43.288 187.666 42.688 185.602 41.488C183.538 40.264 181.894 38.62 180.67 36.556C179.47 34.492 178.87 32.236 178.87 29.788ZM184.27 29.788C184.27 31.324 184.63 32.74 185.35 34.036C186.094 35.332 187.09 36.364 188.338 37.132C189.61 37.876 191.014 38.248 192.55 38.248C194.038 38.248 195.394 37.876 196.618 37.132C197.842 36.364 198.802 35.344 199.498 34.072C200.194 32.776 200.542 31.348 200.542 29.788C200.542 28.204 200.182 26.764 199.462 25.468C198.742 24.172 197.758 23.152 196.51 22.408C195.286 21.64 193.918 21.256 192.406 21.256C190.894 21.256 189.514 21.64 188.266 22.408C187.042 23.152 186.07 24.172 185.35 25.468C184.63 26.764 184.27 28.204 184.27 29.788ZM216.367 16.504V43H211.147V16.504H216.367ZM247.073 16.504V44.08H246.929L228.389 27.34L228.497 43H223.205V15.46H223.421L241.925 32.452L241.817 16.504H247.073ZM268.045 22.912C265.741 21.64 263.737 21.004 262.033 21.004C260.881 21.004 259.981 21.232 259.333 21.688C258.709 22.144 258.397 22.828 258.397 23.74C258.397 24.58 258.853 25.324 259.765 25.972C260.701 26.596 261.937 27.196 263.473 27.772C264.721 28.228 265.789 28.756 266.677 29.356C267.565 29.932 268.297 30.736 268.873 31.768C269.473 32.8 269.773 34.108 269.773 35.692C269.773 37.06 269.413 38.332 268.693 39.508C267.997 40.66 266.965 41.584 265.597 42.28C264.229 42.952 262.597 43.288 260.701 43.288C259.117 43.288 257.545 43.06 255.985 42.604C254.425 42.124 252.973 41.404 251.629 40.444L253.933 36.376C254.845 37.048 255.889 37.6 257.065 38.032C258.241 38.464 259.297 38.68 260.233 38.68C261.337 38.68 262.297 38.452 263.113 37.996C263.929 37.516 264.337 36.748 264.337 35.692C264.337 34.324 263.053 33.136 260.485 32.128C258.973 31.528 257.713 30.952 256.705 30.4C255.697 29.848 254.821 29.056 254.077 28.024C253.357 26.992 252.997 25.696 252.997 24.136C252.997 21.856 253.741 20.02 255.229 18.628C256.741 17.236 258.745 16.48 261.241 16.36C263.209 16.36 264.853 16.588 266.173 17.044C267.493 17.476 268.777 18.1 270.025 18.916L268.045 22.912Z" fill="#FCB813"/>
<g clip-path="url(#clip0)">
<path d="M30.5 61C47.3447 61 61 47.3447 61 30.5C61 13.6553 47.3447 0 30.5 0C13.6553 0 0 13.6553 0 30.5C0 47.3447 13.6553 61 30.5 61Z" fill="url(#paint0_linear)"/>
<path d="M30.4999 56.7931C45.0212 56.7931 56.793 45.0213 56.793 30.5C56.793 15.9787 45.0212 4.20691 30.4999 4.20691C15.9786 4.20691 4.20679 15.9787 4.20679 30.5C4.20679 45.0213 15.9786 56.7931 30.4999 56.7931Z" fill="url(#paint1_linear)"/>
<g opacity="0.2">
<path opacity="0.2" d="M30.4999 56.7931C45.0212 56.7931 56.793 45.0213 56.793 30.5C56.793 15.9787 45.0212 4.20691 30.4999 4.20691C15.9786 4.20691 4.20679 15.9787 4.20679 30.5C4.20679 45.0213 15.9786 56.7931 30.4999 56.7931Z" fill="black"/>
</g>
<path d="M30.4999 55.2155C44.1499 55.2155 55.2155 44.15 55.2155 30.5C55.2155 16.85 44.1499 5.78448 30.4999 5.78448C16.8499 5.78448 5.78442 16.85 5.78442 30.5C5.78442 44.15 16.8499 55.2155 30.4999 55.2155Z" fill="url(#paint2_linear)"/>
<g opacity="0.33">
<path opacity="0.33" d="M30.5001 61C30.0983 61 29.6923 61 29.2906 60.9769L29.4547 56.77C30.1972 56.7994 30.9523 56.7973 31.6864 56.77L31.8736 60.9769C31.4193 61 30.9586 61 30.5001 61ZM28.0033 60.899L27.4879 60.8528L27.8981 56.6669C28.0453 56.6795 28.1926 56.6942 28.3419 56.7048L28.0033 60.899ZM15.2648 56.9277C11.5174 54.767 8.27221 51.8341 5.74457 48.3237C3.21692 44.8133 1.46458 40.8056 0.60376 36.5663L4.72652 35.725C5.46976 39.3795 6.98142 42.8342 9.16126 45.8601C11.3411 48.886 14.1393 51.4138 17.3703 53.2761L15.2648 56.9277ZM50.6932 53.3666L47.9082 50.2114C50.7003 47.7421 52.9361 44.7081 54.4678 41.31C55.9995 37.9119 56.7921 34.2273 56.7932 30.5V30.4369H61.0001V30.5C60.9997 34.8241 60.0806 39.0987 58.3037 43.0408C56.5269 46.9829 53.9327 50.5025 50.6932 53.3666ZM54.4583 19.6336C54.3973 19.499 54.3342 19.3643 54.2711 19.2297L58.0574 17.425C58.131 17.5806 58.2025 17.7363 58.2677 17.894L54.4583 19.6336ZM7.15179 18.4073L3.41186 16.47C3.80731 15.7065 4.24062 14.9534 4.69917 14.2277L8.2561 16.4742C7.86066 17.101 7.48624 17.751 7.15179 18.4073ZM53.7642 18.2369C53.4192 17.5827 53.0406 16.9349 52.641 16.3122L56.1811 14.0405C56.6459 14.762 57.0835 15.5129 57.4852 16.2723L53.7642 18.2369ZM8.87242 15.5445L5.41435 13.1487C5.5111 13.0056 5.61207 12.8647 5.71304 12.728L9.12904 15.1806C9.0449 15.3005 8.95655 15.4225 8.87242 15.5445ZM17.322 7.74279L15.2185 4.10383C18.9628 1.94083 23.1232 0.596347 27.4252 0.159077C31.7272 -0.278192 36.073 0.201692 40.1759 1.56707L38.8424 5.56362C35.3051 4.38432 31.558 3.96877 27.8484 4.34441C24.1387 4.72005 20.551 5.87834 17.322 7.74279Z" fill="white"/>
</g>
<path d="M48.169 27.7108L36.4949 16.0367C35.9639 15.5085 35.2455 15.212 34.4966 15.212C33.7477 15.212 33.0292 15.5085 32.4983 16.0367L26.0407 22.4943L19.5789 16.0367C19.184 15.637 18.6789 15.364 18.1282 15.2527C17.5774 15.1414 17.006 15.1967 16.4868 15.4116C15.9676 15.6265 15.5243 15.9912 15.2133 16.4592C14.9024 16.9272 14.7379 17.4773 14.741 18.0392V36.4801C15.5837 35.9376 16.5648 35.6491 17.567 35.6491C18.5692 35.6491 19.5503 35.9376 20.393 36.4801V24.8691L24.0235 28.4996C24.4864 28.9636 25.096 29.2524 25.7482 29.3169C26.4003 29.3813 27.0547 29.2174 27.5994 28.853C27.7647 28.7418 27.9183 28.6143 28.0579 28.4723L34.4966 22.0441L42.1721 29.7196L32.9716 38.9138C32.6885 39.1714 32.4606 39.4837 32.3017 39.8319C32.1428 40.1802 32.0562 40.557 32.0472 40.9397C32.0381 41.3223 32.1068 41.7028 32.2491 42.0582C32.3914 42.4135 32.6044 42.7363 32.875 43.0069C33.1457 43.2776 33.4684 43.4905 33.8238 43.6328C34.1791 43.7751 34.5596 43.8438 34.9423 43.8348C35.3249 43.8257 35.7018 43.7391 36.05 43.5802C36.3982 43.4214 36.7106 43.1934 36.9681 42.9103L48.169 31.7074C48.6972 31.1764 48.9937 30.458 48.9937 29.7091C48.9937 28.9602 48.6972 28.2417 48.169 27.7108Z" fill="url(#paint3_linear)"/>
<path d="M17.5764 38.0724C16.8761 38.074 16.2012 38.3351 15.6822 38.8053C15.1631 39.2755 14.8368 39.9214 14.7661 40.6181C14.6955 41.3149 14.8857 42.0131 15.2998 42.5779C15.714 43.1427 16.3227 43.5339 17.0085 43.676C17.1019 43.6977 17.1968 43.7117 17.2925 43.7181C17.3913 43.7181 17.4881 43.7328 17.5849 43.7328C17.6816 43.7328 17.7784 43.7328 17.8751 43.7181C17.9707 43.7112 18.0656 43.6972 18.1591 43.676C18.8461 43.5336 19.4558 43.1413 19.87 42.5749C20.2841 42.0086 20.4733 41.3087 20.4007 40.6108C20.3282 39.913 19.9991 39.2669 19.4772 38.7979C18.9554 38.3289 18.278 38.0704 17.5764 38.0724Z" fill="url(#paint4_linear)"/>
<g opacity="0.5">
<path opacity="0.5" d="M47.2204 27.8139L36.2277 16.8276C35.7278 16.3295 35.0509 16.0498 34.3451 16.0498C33.6394 16.0498 32.9625 16.3295 32.4626 16.8276L26.3836 22.9065L20.2962 16.8276C19.9233 16.454 19.4477 16.1996 18.9299 16.0968C18.4121 15.9941 17.8754 16.0475 17.3881 16.2504C16.9007 16.4533 16.4847 16.7964 16.1927 17.2363C15.9008 17.6761 15.7462 18.1928 15.7486 18.7207V36.0867C16.5424 35.576 17.4665 35.3044 18.4105 35.3044C19.3545 35.3044 20.2785 35.576 21.0724 36.0867V25.1488L24.4905 28.5669C24.9268 29.0024 25.5004 29.2735 26.1139 29.3341C26.7274 29.3947 27.3429 29.241 27.856 28.8993C28.0077 28.7942 28.1486 28.6744 28.2767 28.5417L34.3325 22.488L41.56 29.7154L32.8959 38.3648C32.6411 38.6107 32.4378 38.905 32.298 39.2304C32.1582 39.5557 32.0847 39.9057 32.0817 40.2599C32.0787 40.614 32.1464 40.9652 32.2806 41.2929C32.4149 41.6205 32.6132 41.9182 32.8638 42.1684C33.1144 42.4186 33.4124 42.6163 33.7403 42.7501C34.0682 42.8838 34.4195 42.9508 34.7736 42.9473C35.1278 42.9437 35.4776 42.8696 35.8028 42.7292C36.1279 42.5889 36.4218 42.3852 36.6674 42.1299L47.2098 31.5875C47.4587 31.3406 47.6564 31.0471 47.7916 30.7237C47.9269 30.4003 47.997 30.0534 47.998 29.7029C47.999 29.3523 47.9308 29.0051 47.7973 28.6809C47.6639 28.3568 47.4678 28.0621 47.2204 27.8139Z" fill="#AE6A28"/>
<path opacity="0.5" d="M18.4116 37.5718C17.7532 37.5755 17.1194 37.8227 16.6322 38.2657C16.1451 38.7087 15.839 39.3162 15.773 39.9713C15.7069 40.6265 15.8855 41.2829 16.2744 41.8142C16.6633 42.3455 17.235 42.7143 17.8794 42.8494C17.9679 42.8703 18.0579 42.8837 18.1487 42.8893C18.2391 42.8893 18.3296 42.9019 18.4221 42.9019C18.5147 42.9019 18.6051 42.9019 18.6956 42.8893C18.7856 42.8834 18.8749 42.87 18.9627 42.8494C19.6083 42.714 20.1809 42.3441 20.5697 41.8112C20.9586 41.2783 21.1362 40.6202 21.0682 39.9641C21.0002 39.3079 20.6914 38.7002 20.2016 38.2584C19.7117 37.8166 19.0755 37.572 18.4158 37.5718H18.4116Z" fill="#AE6A28"/>
</g>
</g>
<defs>
<linearGradient id="paint0_linear" x1="0" y1="30.5" x2="61" y2="30.5" gradientUnits="userSpaceOnUse">
<stop stop-color="#E7C51F"/>
<stop offset="0.33" stop-color="#ECB11F"/>
<stop offset="0.7" stop-color="#F0A21F"/>
<stop offset="1" stop-color="#F19D1F"/>
</linearGradient>
<linearGradient id="paint1_linear" x1="4.20679" y1="30.5" x2="56.793" y2="30.5" gradientUnits="userSpaceOnUse">
<stop stop-color="#FEDF00"/>
<stop offset="0.37" stop-color="#FDC70C"/>
<stop offset="0.72" stop-color="#FCB813"/>
<stop offset="1" stop-color="#FCB316"/>
</linearGradient>
<linearGradient id="paint2_linear" x1="1612.29" y1="7415" x2="13228.6" y2="7415" gradientUnits="userSpaceOnUse">
<stop stop-color="#E7C51F"/>
<stop offset="0.33" stop-color="#ECB11F"/>
<stop offset="0.7" stop-color="#F0A21F"/>
<stop offset="1" stop-color="#F19D1F"/>
</linearGradient>
<linearGradient id="paint3_linear" x1="14.7515" y1="29.4693" x2="48.9957" y2="29.4693" gradientUnits="userSpaceOnUse">
<stop stop-color="#D3B42A"/>
<stop offset="0.18" stop-color="#D9AC28"/>
<stop offset="0.63" stop-color="#E59D24"/>
<stop offset="1" stop-color="#E99823"/>
</linearGradient>
<linearGradient id="paint4_linear" x1="440.303" y1="1167.09" x2="592.897" y2="1167.09" gradientUnits="userSpaceOnUse">
<stop stop-color="#D3B42A"/>
<stop offset="0.18" stop-color="#D9AC28"/>
<stop offset="0.63" stop-color="#E59D24"/>
<stop offset="1" stop-color="#E99823"/>
</linearGradient>
<clipPath id="clip0">
<rect width="61" height="61" fill="white"/>
</clipPath>
</defs>
</svg>
