<svg width="63" height="64" fill="none" xmlns="http://www.w3.org/2000/svg"><g clip-path="url(#clip0)"><path d="M31.5 64C48.897 64 63 49.673 63 32 63 14.327 48.897 0 31.5 0S0 14.327 0 32c0 17.673 14.103 32 31.5 32z" fill="url(#paint0_linear)"/><path d="M31.5 59.586c14.997 0 27.155-12.35 27.155-27.586 0-15.235-12.158-27.586-27.155-27.586C16.503 4.414 4.345 16.764 4.345 32c0 15.236 12.158 27.586 27.155 27.586z" fill="url(#paint1_linear)"/><path opacity=".2" d="M31.5 59.586c14.997 0 27.155-12.35 27.155-27.586 0-15.235-12.158-27.586-27.155-27.586C16.503 4.414 4.345 16.764 4.345 32c0 15.236 12.158 27.586 27.155 27.586z" fill="#000"/><path d="M31.5 57.931c14.097 0 25.526-11.61 25.526-25.931 0-14.321-11.429-25.931-25.526-25.931C17.402 6.069 5.974 17.679 5.974 32c0 14.321 11.428 25.931 25.526 25.931z" fill="url(#paint2_linear)"/><path opacity=".33" d="M31.5 64c-.415 0-.834 0-1.25-.024l.17-4.414c.767.03 1.547.029 2.305 0l.194 4.414c-.47.024-.945.024-1.419.024zm-2.579-.106l-.532-.048.424-4.392c.152.013.304.029.458.04l-.35 4.4zm-13.156-4.166A31.693 31.693 0 015.933 50.7a32.27 32.27 0 01-5.31-12.335l4.258-.883a27.826 27.826 0 004.58 10.633 27.328 27.328 0 008.479 7.781l-2.175 3.831zm36.59-3.737l-2.876-3.31a27.598 27.598 0 006.775-9.34A27.99 27.99 0 0058.655 32v-.066H63V32c0 4.537-.95 9.022-2.785 13.158a32 32 0 01-7.86 10.833zM56.244 20.6a36.12 36.12 0 00-.194-.424l3.91-1.893c.077.163.15.327.218.492L56.244 20.6zM7.386 19.313L3.524 17.28c.408-.801.856-1.591 1.33-2.353l3.673 2.358c-.409.657-.795 1.339-1.14 2.028zm48.141-.18a27.679 27.679 0 00-1.16-2.018l3.656-2.384c.48.757.932 1.545 1.347 2.342l-3.843 2.06zM9.163 16.31l-3.571-2.514c.1-.15.204-.298.308-.441l3.528 2.573c-.087.126-.178.254-.265.382zm8.727-8.185l-2.173-3.818A31.245 31.245 0 0128.325.166a31.124 31.124 0 0113.17 1.478l-1.378 4.193A26.826 26.826 0 0028.76 4.558 26.93 26.93 0 0017.89 8.124z" fill="#fff"/><path d="M49.748 29.074L37.692 16.825a2.903 2.903 0 00-2.064-.865c-.774 0-1.516.311-2.064.865l-6.67 6.776-6.673-6.776a2.907 2.907 0 00-1.498-.822 2.877 2.877 0 00-1.695.167 2.93 2.93 0 00-1.316 1.099 3 3 0 00-.488 1.657v19.348a5.332 5.332 0 012.919-.872c1.035 0 2.048.303 2.919.872V26.092l3.75 3.81a2.886 2.886 0 003.693.37c.17-.117.329-.25.473-.4l6.65-6.744 7.927 8.053-9.502 9.647c-.293.27-.528.598-.692.963a3.008 3.008 0 00.592 3.331c.28.284.613.507.98.657a2.881 2.881 0 002.299-.055c.36-.167.682-.406.948-.703l11.568-11.754c.546-.557.852-1.311.852-2.097s-.306-1.54-.852-2.096z" fill="url(#paint3_linear)"/><path d="M18.153 39.945a2.899 2.899 0 00-1.957.769 3.005 3.005 0 00-.395 3.958 2.92 2.92 0 001.765 1.152c.097.023.195.038.293.044.102 0 .202.016.302.016.1 0 .2 0 .3-.016.099-.007.197-.022.294-.044a2.92 2.92 0 001.766-1.155 3.005 3.005 0 00-.405-3.963 2.899 2.899 0 00-1.963-.761z" fill="url(#paint4_linear)"/><g opacity=".5" fill="#AE6A28"><path opacity=".5" d="M48.769 29.182L37.416 17.655a2.733 2.733 0 00-1.945-.816c-.729 0-1.428.294-1.944.816l-6.278 6.378-6.287-6.378a2.738 2.738 0 00-1.411-.767 2.711 2.711 0 00-1.593.162 2.76 2.76 0 00-1.234 1.034 2.826 2.826 0 00-.46 1.557v18.22a5.024 5.024 0 012.75-.82c.975 0 1.93.285 2.75.82V26.386l3.53 3.586a2.724 2.724 0 003.476.349 2.91 2.91 0 00.434-.376l6.254-6.351 7.465 7.583-8.949 9.075a2.834 2.834 0 00-.033 3.99c.26.263.567.47.906.61a2.715 2.715 0 003.023-.65l10.888-11.061a2.834 2.834 0 00.01-3.96zM19.015 39.42a2.73 2.73 0 00-1.837.728 2.83 2.83 0 00-.37 3.723c.402.557.992.944 1.658 1.086.091.022.184.036.278.042.093 0 .187.013.282.013.096 0 .19 0 .283-.013.093-.007.185-.02.276-.042a2.751 2.751 0 001.66-1.09 2.832 2.832 0 00-.38-3.727 2.73 2.73 0 00-1.845-.72h-.005z"/></g></g><defs><linearGradient id="paint0_linear" x1="0" y1="32" x2="63" y2="32" gradientUnits="userSpaceOnUse"><stop stop-color="#E7C51F"/><stop offset=".33" stop-color="#ECB11F"/><stop offset=".7" stop-color="#F0A21F"/><stop offset="1" stop-color="#F19D1F"/></linearGradient><linearGradient id="paint1_linear" x1="4.345" y1="32" x2="58.655" y2="32" gradientUnits="userSpaceOnUse"><stop stop-color="#FEDF00"/><stop offset=".37" stop-color="#FDC70C"/><stop offset=".72" stop-color="#FCB813"/><stop offset="1" stop-color="#FCB316"/></linearGradient><linearGradient id="paint2_linear" x1="1665.15" y1="7779.67" x2="13662.3" y2="7779.67" gradientUnits="userSpaceOnUse"><stop stop-color="#E7C51F"/><stop offset=".33" stop-color="#ECB11F"/><stop offset=".7" stop-color="#F0A21F"/><stop offset="1" stop-color="#F19D1F"/></linearGradient><linearGradient id="paint3_linear" x1="15.235" y1="30.919" x2="50.602" y2="30.919" gradientUnits="userSpaceOnUse"><stop stop-color="#D3B42A"/><stop offset=".18" stop-color="#D9AC28"/><stop offset=".63" stop-color="#E59D24"/><stop offset="1" stop-color="#E99823"/></linearGradient><linearGradient id="paint4_linear" x1="454.74" y1="1224.49" x2="612.336" y2="1224.49" gradientUnits="userSpaceOnUse"><stop stop-color="#D3B42A"/><stop offset=".18" stop-color="#D9AC28"/><stop offset=".63" stop-color="#E59D24"/><stop offset="1" stop-color="#E99823"/></linearGradient><clipPath id="clip0"><path fill="#fff" d="M0 0h63v64H0z"/></clipPath></defs></svg>