<svg width="271" height="61" fill="none" xmlns="http://www.w3.org/2000/svg"><path d="M86.64 16.504V43h-5.22V16.504h5.22zm34.127-1.08V43h-5.22V30.364l-8.64 12.276h-.072l-8.316-11.484V43h-5.04V15.424h.036l13.428 19.044 13.752-19.044h.072zm6.848 1.08h7.92c3.384 0 6.168.66 8.352 1.98 2.184 1.296 3.768 2.988 4.752 5.076 1.008 2.064 1.512 4.284 1.512 6.66 0 2.544-.6 4.788-1.8 6.732a12.193 12.193 0 01-4.86 4.5c-2.016 1.032-4.236 1.548-6.66 1.548h-9.216V16.504zm8.316 21.456c2.712 0 4.86-.696 6.444-2.088 1.584-1.392 2.376-3.396 2.376-6.012 0-2.112-.444-3.792-1.332-5.04-.864-1.248-1.884-2.112-3.06-2.592-1.152-.48-2.244-.72-3.276-.72h-4.248V37.96h3.096z" fill="#F19D1F"/><path d="M175.261 40.804c-.672.552-1.74 1.104-3.204 1.656-1.464.552-3.06.828-4.788.828-2.76 0-5.16-.6-7.2-1.8-2.04-1.2-3.6-2.808-4.68-4.824-1.08-2.04-1.62-4.272-1.62-6.696 0-2.664.54-5.04 1.62-7.128s2.592-3.708 4.536-4.86c1.944-1.176 4.188-1.764 6.732-1.764 1.608 0 3.096.216 4.464.648 1.368.432 2.568.972 3.6 1.62l-2.052 4.932c-1.896-1.44-3.84-2.16-5.832-2.16-1.344 0-2.604.372-3.78 1.116-1.176.744-2.112 1.764-2.808 3.06-.696 1.272-1.044 2.688-1.044 4.248 0 1.704.324 3.204.972 4.5a7.244 7.244 0 002.772 2.988c1.2.72 2.604 1.08 4.212 1.08 1.296 0 2.46-.204 3.492-.612 1.032-.432 1.848-.936 2.448-1.512l2.16 4.68zm3.609-11.016c0-2.4.6-4.644 1.8-6.732a13.784 13.784 0 014.932-4.968 12.96 12.96 0 016.768-1.872c2.424 0 4.668.624 6.732 1.872a13.695 13.695 0 014.968 4.968c1.248 2.088 1.872 4.332 1.872 6.732 0 2.448-.624 4.704-1.872 6.768a13.784 13.784 0 01-4.968 4.932c-2.064 1.2-4.308 1.8-6.732 1.8-2.448 0-4.704-.6-6.768-1.8a13.874 13.874 0 01-4.932-4.932c-1.2-2.064-1.8-4.32-1.8-6.768zm5.4 0c0 1.536.36 2.952 1.08 4.248a8.598 8.598 0 002.988 3.096c1.272.744 2.676 1.116 4.212 1.116 1.488 0 2.844-.372 4.068-1.116a8.2 8.2 0 002.88-3.06c.696-1.296 1.044-2.724 1.044-4.284 0-1.584-.36-3.024-1.08-4.32a8.038 8.038 0 00-2.952-3.06c-1.224-.768-2.592-1.152-4.104-1.152s-2.892.384-4.14 1.152c-1.224.744-2.196 1.764-2.916 3.06-.72 1.296-1.08 2.736-1.08 4.32zm32.097-13.284V43h-5.22V16.504h5.22zm30.706 0V44.08h-.144l-18.54-16.74.108 15.66h-5.292V15.46h.216l18.504 16.992-.108-15.948h5.256zm20.972 6.408c-2.304-1.272-4.308-1.908-6.012-1.908-1.152 0-2.052.228-2.7.684-.624.456-.936 1.14-.936 2.052 0 .84.456 1.584 1.368 2.232.936.624 2.172 1.224 3.708 1.8 1.248.456 2.316.984 3.204 1.584.888.576 1.62 1.38 2.196 2.412.6 1.032.9 2.34.9 3.924 0 1.368-.36 2.64-1.08 3.816-.696 1.152-1.728 2.076-3.096 2.772-1.368.672-3 1.008-4.896 1.008-1.584 0-3.156-.228-4.716-.684a15.08 15.08 0 01-4.356-2.16l2.304-4.068c.912.672 1.956 1.224 3.132 1.656 1.176.432 2.232.648 3.168.648 1.104 0 2.064-.228 2.88-.684.816-.48 1.224-1.248 1.224-2.304 0-1.368-1.284-2.556-3.852-3.564-1.512-.6-2.772-1.176-3.78-1.728s-1.884-1.344-2.628-2.376c-.72-1.032-1.08-2.328-1.08-3.888 0-2.28.744-4.116 2.232-5.508 1.512-1.392 3.516-2.148 6.012-2.268 1.968 0 3.612.228 4.932.684a16.29 16.29 0 013.852 1.872l-1.98 3.996z" fill="#FCB813"/><g clip-path="url(#clip0)"><path d="M30.5 61C47.345 61 61 47.345 61 30.5S47.345 0 30.5 0 0 13.655 0 30.5 13.655 61 30.5 61z" fill="url(#paint0_linear)"/><path d="M30.5 56.793c14.521 0 26.293-11.772 26.293-26.293 0-14.521-11.772-26.293-26.293-26.293-14.521 0-26.293 11.772-26.293 26.293 0 14.521 11.772 26.293 26.293 26.293z" fill="url(#paint1_linear)"/><path opacity=".2" d="M30.5 56.793c14.521 0 26.293-11.772 26.293-26.293 0-14.521-11.772-26.293-26.293-26.293-14.521 0-26.293 11.772-26.293 26.293 0 14.521 11.772 26.293 26.293 26.293z" fill="#000"/><path d="M30.5 55.215c13.65 0 24.715-11.065 24.715-24.715S44.15 5.784 30.5 5.784 5.784 16.85 5.784 30.5 16.85 55.215 30.5 55.215z" fill="url(#paint2_linear)"/><path opacity=".33" d="M30.5 61c-.402 0-.808 0-1.21-.023l.165-4.207c.742.03 1.497.027 2.231 0l.188 4.207C31.419 61 30.959 61 30.5 61zm-2.497-.101l-.515-.046.41-4.186c.147.012.295.027.444.038l-.339 4.194zm-12.738-3.971A30.512 30.512 0 01.604 36.566l4.123-.841A26.31 26.31 0 0017.37 53.276l-2.105 3.652zm35.428-3.561l-2.785-3.156A26.324 26.324 0 0056.793 30.5v-.063H61v.063a30.525 30.525 0 01-10.307 22.867zm3.765-33.733c-.06-.135-.124-.27-.187-.404l3.786-1.805c.074.156.145.311.21.469l-3.809 1.74zM7.152 18.407l-3.74-1.937c.395-.763.829-1.517 1.287-2.242l3.557 2.246c-.395.627-.77 1.277-1.104 1.933zm46.612-.17a26.273 26.273 0 00-1.123-1.925l3.54-2.272c.465.722.903 1.473 1.304 2.232l-3.72 1.965zM8.872 15.545l-3.458-2.396c.097-.143.198-.284.299-.421l3.416 2.453-.257.364zm8.45-7.802l-2.103-3.64a30.586 30.586 0 0124.957-2.536l-1.334 3.997a26.363 26.363 0 00-21.52 2.179z" fill="#fff"/><path d="M48.169 27.71L36.495 16.038a2.833 2.833 0 00-3.997 0l-6.457 6.457-6.462-6.457a2.827 2.827 0 00-4.838 2.002V36.48a5.22 5.22 0 015.652 0V24.87l3.63 3.63a2.83 2.83 0 004.035-.028l6.439-6.428 7.675 7.676-9.2 9.194a2.83 2.83 0 103.996 3.996L48.17 31.707a2.833 2.833 0 000-3.996z" fill="url(#paint3_linear)"/><path d="M17.576 38.072a2.83 2.83 0 00-.284 5.646c.1 0 .196.015.293.015.097 0 .193 0 .29-.015a2.831 2.831 0 00-.299-5.646z" fill="url(#paint4_linear)"/><g opacity=".5" fill="#AE6A28"><path opacity=".5" d="M47.22 27.814L36.228 16.828a2.667 2.667 0 00-3.765 0l-6.08 6.079-6.087-6.08a2.663 2.663 0 00-4.547 1.894v17.366a4.92 4.92 0 015.323 0V25.149l3.419 3.418a2.67 2.67 0 003.365.332c.152-.105.293-.225.42-.357l6.057-6.054 7.227 7.227-8.664 8.65a2.665 2.665 0 103.771 3.765L47.21 31.587a2.664 2.664 0 00.01-3.773zM18.412 37.572a2.667 2.667 0 00-.533 5.277 1.6 1.6 0 00.27.04c.09 0 .18.013.273.013.093 0 .183 0 .274-.013a2.667 2.667 0 00-.28-5.317h-.004z"/></g></g><defs><linearGradient id="paint0_linear" x1="0" y1="30.5" x2="61" y2="30.5" gradientUnits="userSpaceOnUse"><stop stop-color="#E7C51F"/><stop offset=".33" stop-color="#ECB11F"/><stop offset=".7" stop-color="#F0A21F"/><stop offset="1" stop-color="#F19D1F"/></linearGradient><linearGradient id="paint1_linear" x1="4.207" y1="30.5" x2="56.793" y2="30.5" gradientUnits="userSpaceOnUse"><stop stop-color="#FEDF00"/><stop offset=".37" stop-color="#FDC70C"/><stop offset=".72" stop-color="#FCB813"/><stop offset="1" stop-color="#FCB316"/></linearGradient><linearGradient id="paint2_linear" x1="1612.29" y1="7415" x2="13228.6" y2="7415" gradientUnits="userSpaceOnUse"><stop stop-color="#E7C51F"/><stop offset=".33" stop-color="#ECB11F"/><stop offset=".7" stop-color="#F0A21F"/><stop offset="1" stop-color="#F19D1F"/></linearGradient><linearGradient id="paint3_linear" x1="14.752" y1="29.469" x2="48.996" y2="29.469" gradientUnits="userSpaceOnUse"><stop stop-color="#D3B42A"/><stop offset=".18" stop-color="#D9AC28"/><stop offset=".63" stop-color="#E59D24"/><stop offset="1" stop-color="#E99823"/></linearGradient><linearGradient id="paint4_linear" x1="440.303" y1="1167.09" x2="592.897" y2="1167.09" gradientUnits="userSpaceOnUse"><stop stop-color="#D3B42A"/><stop offset=".18" stop-color="#D9AC28"/><stop offset=".63" stop-color="#E59D24"/><stop offset="1" stop-color="#E99823"/></linearGradient><clipPath id="clip0"><path fill="#fff" d="M0 0h61v61H0z"/></clipPath></defs></svg>